<svg xmlns="http://www.w3.org/2000/svg" width="76.002" height="75.829" viewBox="0 0 76.002 75.829"><defs><style>.a{fill:#A82047;}</style></defs><g transform="translate(-1 -1.048)"><path class="a" d="M74.958,34.009l-7.081-7.081V16.875a6.909,6.909,0,0,0-6.909-6.909H50.95L43.869,3.057a6.909,6.909,0,0,0-9.741,0L27.046,10H16.994a6.909,6.909,0,0,0-6.909,6.909V26.927L3.176,34.009A6.723,6.723,0,0,0,3,43.75l7.116,7.081V60.884a6.909,6.909,0,0,0,6.909,6.909H27.046l7.081,7.081a6.922,6.922,0,0,0,9.741,0l7.081-7.116H61a6.909,6.909,0,0,0,6.909-6.909V50.831l7.081-7.081a6.909,6.909,0,0,0,0-9.741ZM60.968,48v12.85H48.118L39,69.969l-9.12-9.12H17.028V48l-9.12-9.12,9.12-9.12V16.909h12.85L39,7.79l9.12,9.12h12.85V29.76l9.12,9.12Z" transform="translate(0 0)"/><path class="a" d="M29.555,8.709,8.829,32.89A3.455,3.455,0,1,0,14.08,37.38L34.806,13.2a3.455,3.455,0,1,0-5.251-4.491Z" transform="translate(17.18 15.834)"/><path class="a" d="M15.6,17.669a5.182,5.182,0,1,0-6.391-3.454A5.182,5.182,0,0,0,15.6,17.669Z" transform="translate(19.595 15.856)"/><path class="a" d="M15.76,13.69a5.182,5.182,0,1,0,6.391,3.454A5.182,5.182,0,0,0,15.76,13.69Z" transform="translate(27.038 30.544)"/></g></svg>