<svg xmlns="http://www.w3.org/2000/svg" width="55" height="80.78" viewBox="0 0 55 80.78"><defs><style>.a{fill:#A82047;}</style></defs><g transform="translate(-17.999 -3)"><g transform="translate(17.999 3)"><path class="a" d="M39.484,955.362A16.367,16.367,0,0,0,23.156,971.69a17.6,17.6,0,0,0,3.061,10.1,2.579,2.579,0,1,0,4.189-3.008,13.563,13.563,0,0,1-2.095-7.09,11.172,11.172,0,0,1,22.343,0,13.563,13.563,0,0,1-2.095,7.09,2.579,2.579,0,1,0,4.189,3.008,17.6,17.6,0,0,0,3.061-10.1A16.367,16.367,0,0,0,39.484,955.362Zm0,13.75a7.775,7.775,0,0,0-7.734,7.734v20.893a8.634,8.634,0,0,0-4.3-3.464,7.252,7.252,0,0,0-5.586.967c-1.63,1.295-3.053,2.3-3.625,4.377-.537,1.958-.141,4.063.806,6.5,4.53,10.854,10.018,21.377,16.784,29.138a2.615,2.615,0,0,0,1.934.886h23.2a2.586,2.586,0,0,0,1.531-.51c2.691-1.994,4.7-5.225,6.392-9.023a50.315,50.315,0,0,0,3.625-12.488,29.341,29.341,0,0,0-.269-12.031c-1-3.556-3.625-6.738-7.546-7.2a13.294,13.294,0,0,0-1.96.161,6.421,6.421,0,0,0-1.934-2.283,6.865,6.865,0,0,0-4.189-1.316,5.474,5.474,0,0,0-2.524.752,6.548,6.548,0,0,0-.94-1.128,7.016,7.016,0,0,0-4.216-1.343,7.865,7.865,0,0,0-1.719.215V976.846a7.775,7.775,0,0,0-7.734-7.734Zm0,5.156a2.518,2.518,0,0,1,2.578,2.578v18.047a2.579,2.579,0,0,0,4.914,1.1c.938-1.217,1.913-1.189,3.142-.752.308.224.537.352.537,1.37a2.576,2.576,0,0,0,4.888,1.155c.67-1.392,1.107-1.222,2.283-.779.352.25.564.374.564,1.343a2.587,2.587,0,0,0,4.324,1.88c.028.057,1.148-.306,1.558-.161,1.6.242,2.379,1.153,3.035,3.464a25,25,0,0,1,.134,9.829,45.66,45.66,0,0,1-3.276,11.172,19.83,19.83,0,0,1-4.3,6.472H39.054c-4.806-6.509-15.9-24.018-15.844-29.97a3.193,3.193,0,0,1,2.873-1.772c1.367.69,1.707,1.4,2.524,2.874l3.411,6.821a2.576,2.576,0,0,0,4.888-1.155V976.846a2.518,2.518,0,0,1,2.578-2.578Z" transform="translate(-17.999 -955.362)"/></g></g></svg>