<svg width="97" height="103" viewBox="0 0 97 103" fill="none" xmlns="http://www.w3.org/2000/svg">
<path d="M94.6604 66.0224L72.3058 91.6348C70.8398 93.3393 69.018 94.702 66.9688 95.6269C64.9195 96.5518 62.6926 97.0164 60.4445 96.9881H26.8522L21.0752 102.866L0.29126 82.605L15.1943 67.8049C18.2287 64.8155 22.0362 62.731 26.1895 61.7853C30.3428 60.8397 34.6774 61.0704 38.7069 62.4515L41.9613 63.6061H62.1148C62.9598 63.6056 63.7962 63.7752 64.5744 64.1047C65.3525 64.4343 66.0563 64.9171 66.644 65.5243C67.2316 66.1316 67.691 66.8509 67.9949 67.6394C68.2987 68.4279 68.4408 69.2695 68.4126 70.114C68.3151 71.798 67.5743 73.3801 66.3432 74.5333C65.1121 75.6864 63.485 76.3224 61.7983 76.3097H49.7352C49.0949 76.3097 48.4808 76.5641 48.0281 77.0168C47.5753 77.4696 47.3209 78.0836 47.3209 78.7239C47.3209 79.3642 47.5753 79.9783 48.0281 80.431C48.4808 80.8838 49.0949 81.1381 49.7352 81.1381H61.9113C64.8691 81.1456 67.7168 80.0164 69.8658 77.9841C72.0149 75.9517 73.3011 73.1715 73.4587 70.2178V70.1124L84.6904 57.5167C85.8363 56.2024 87.4393 55.3733 89.1742 55.1977C90.909 55.0222 92.6457 55.5134 94.0316 56.5715C95.3528 57.7509 96.1588 59.4014 96.2763 61.1685C96.3939 62.9356 95.8137 64.6784 94.6604 66.0224Z" fill="url(#paint0_linear_42_1025)"/>
<path d="M82.0649 23.9313L77.7615 23.197C77.2651 21.2903 76.5244 19.4558 75.5578 17.7389L78.0763 14.1697C78.5015 13.5102 78.6916 12.7263 78.6156 11.9452C78.5396 11.1641 78.202 10.4315 77.6576 9.86628L75.0337 7.24233C74.4815 6.67527 73.7463 6.3221 72.9586 6.24546C72.1708 6.16883 71.3813 6.3737 70.7302 6.82371L67.1618 9.34216C65.4187 8.40286 63.591 7.62974 61.7029 7.03302L60.9687 2.72953C60.8389 1.96231 60.4402 1.26636 59.8441 0.766252C59.2479 0.266149 58.4932 -0.00545591 57.7151 8.30753e-05H53.9358C53.1467 0.0145659 52.3879 0.306741 51.7929 0.825224C51.1978 1.34371 50.8046 2.05533 50.6822 2.83503L49.9479 7.13849C48.0472 7.65381 46.2146 8.39388 44.489 9.343L40.9207 6.82452C40.2696 6.37452 39.4801 6.16967 38.6924 6.24631C37.9046 6.32294 37.1694 6.67609 36.6172 7.24315L33.9924 9.8671C33.4254 10.4193 33.0722 11.1545 32.9956 11.9422C32.9189 12.73 33.1238 13.5195 33.5738 14.1706L36.0922 17.7398C35.1435 19.4652 34.4038 21.2974 33.8886 23.1978L29.5851 23.9321C28.8178 24.062 28.1217 24.4607 27.6216 25.0571C27.1214 25.6534 26.85 26.4082 26.8557 27.1865V30.8604C26.8528 31.6266 27.1278 32.3679 27.6296 32.9469C28.1315 33.5259 28.8263 33.9033 29.5851 34.0093L33.8886 34.7435C34.385 36.6505 35.1256 38.4853 36.0922 40.2024L33.5738 43.7708C33.1487 44.4304 32.9587 45.2142 33.0347 45.9953C33.1107 46.7764 33.4481 47.5089 33.9924 48.0743L36.6172 50.699C37.1694 51.2661 37.9046 51.6193 38.6924 51.6959C39.4801 51.7725 40.2696 51.5677 40.9207 51.1176L44.5946 48.5992C46.3199 49.5481 48.1521 50.2878 50.0526 50.8029L50.7869 55.1063C50.9167 55.8737 51.3155 56.5698 51.9118 57.0699C52.5081 57.57 53.263 57.8415 54.0412 57.8358H57.7151C58.4888 57.825 59.235 57.5475 59.8278 57.0503C60.4206 56.553 60.8236 55.8664 60.9687 55.1063L61.7029 50.8029C63.6099 50.3066 65.4447 49.5659 67.1618 48.5992L70.6256 51.2232C71.2851 51.6484 72.069 51.8385 72.8501 51.7625C73.6312 51.6865 74.3638 51.349 74.929 50.8045L77.553 48.1806C78.1198 47.6284 78.4728 46.8934 78.5495 46.1058C78.6261 45.3182 78.4214 44.529 77.9716 43.878L75.4523 40.3087C76.4013 38.5834 77.1414 36.7511 77.6568 34.8507L82.0658 34.1164C82.8331 33.9866 83.5292 33.5878 84.0293 32.9915C84.5294 32.3952 84.801 31.6403 84.7952 30.862V27.1857C84.7846 26.4117 84.5071 25.6652 84.0096 25.0722C83.5122 24.4793 82.8252 24.0762 82.0649 23.9313ZM55.823 38.9415C53.8508 38.9414 51.923 38.3564 50.2833 37.2606C48.6436 36.1649 47.3656 34.6075 46.611 32.7855C45.8564 30.9634 45.659 28.9585 46.0438 27.0243C46.4285 25.09 47.3782 23.3133 48.7727 21.9188C50.1673 20.5243 51.9439 19.5746 53.8782 19.1898C55.8124 18.805 57.8173 19.0024 59.6394 19.7571C61.4614 20.5117 63.0188 21.7897 64.1146 23.4294C65.2103 25.0691 65.7953 26.9969 65.7954 28.969C65.796 30.2788 65.5384 31.5758 65.0375 32.786C64.5365 33.9961 63.8019 35.0957 62.8758 36.0219C61.9496 36.948 60.8501 37.6826 59.6399 38.1835C58.4297 38.6845 57.1327 38.9421 55.823 38.9415Z" fill="#FF2E63"/>
<defs>
<linearGradient id="paint0_linear_42_1025" x1="48.2913" y1="55.1628" x2="48.2913" y2="102.866" gradientUnits="userSpaceOnUse">
<stop stop-color="#252A34"/>
<stop offset="1" stop-color="#FF2E63"/>
<stop offset="1" stop-color="#FF2E63"/>
</linearGradient>
</defs>
</svg>
