<svg width="87" height="103" viewBox="0 0 87 103" fill="none" xmlns="http://www.w3.org/2000/svg">
<path d="M53.2146 68.1175C54.7601 66.7728 56.7041 65.9724 58.7483 65.8391L63.3061 65.5132C65.6144 65.3563 67.7877 64.3684 69.4237 62.7324C71.0598 61.0964 72.0477 58.923 72.2046 56.6147L72.5304 52.0569C72.6637 50.0123 73.4645 48.0679 74.8098 46.5224L77.8479 43.0503C79.3695 41.3066 80.2079 39.0707 80.2079 36.7564C80.2079 34.4422 79.3695 32.2063 77.8479 30.4626L74.8121 26.9936C73.4667 25.4482 72.666 23.5038 72.5329 21.4592L72.207 16.9014C72.05 14.5931 71.0621 12.4198 69.4261 10.7839C67.7901 9.14805 65.6167 8.16032 63.3084 8.00363L58.7506 7.6778C56.7063 7.54454 54.7622 6.74376 53.217 5.39851L49.7448 2.36028C48.001 0.8385 45.765 0 43.4506 0C41.1362 0 38.9001 0.8385 37.1563 2.36028L33.6834 5.07268C32.1383 6.41794 30.1941 7.21868 28.1497 7.35195L23.5911 7.6778C21.283 7.83485 19.11 8.82272 17.4741 10.4586C15.8383 12.0944 14.8504 14.2675 14.6934 16.5755L14.3675 21.1341C14.2343 23.1785 13.4336 25.1226 12.0883 26.6678L9.05084 30.1399C7.52889 31.8836 6.69031 34.1197 6.69031 36.4342C6.69031 38.7486 7.52889 40.9847 9.05084 42.7284L12.0883 46.2006C13.4338 47.7457 14.2345 49.6898 14.3675 51.7343L14.6934 56.2928C14.8504 58.6009 15.8383 60.774 17.4741 62.4098C19.11 64.0457 21.283 65.0335 23.5911 65.1906L28.1497 65.5165C30.1941 65.6497 32.1383 66.4504 33.6834 67.7957L37.1563 70.8332C38.9 72.3551 41.1361 73.1937 43.4506 73.1937C45.7651 73.1937 48.0011 72.3551 49.7448 70.8332L53.2146 68.1175ZM23.0476 36.6487C23.0476 32.6138 24.2441 28.6696 26.4858 25.3147C28.7274 21.9598 31.9137 19.345 35.6414 17.8009C39.3692 16.2569 43.4711 15.8529 47.4284 16.6402C51.3858 17.4274 55.0209 19.3704 57.8739 22.2236C60.727 25.0768 62.6699 28.7119 63.4569 32.6693C64.244 36.6267 63.8399 40.7286 62.2957 44.4563C60.7515 48.184 58.1366 51.3701 54.7816 53.6116C51.4266 55.8532 47.4823 57.0495 43.4474 57.0494C40.7676 57.0523 38.1135 56.5267 35.6371 55.5025C33.1608 54.4783 30.9108 52.9757 29.0159 51.0807C27.1211 49.1857 25.6187 46.9355 24.5947 44.4591C23.5707 41.9826 23.0444 39.3285 23.0476 36.6487Z" fill="url(#paint0_linear_42_1054)"/>
<path d="M54.9509 31.332L49.3075 30.2472C49.0271 30.2036 48.7617 30.0917 48.5347 29.9214C48.3077 29.751 48.126 29.5275 48.0057 29.2705L45.1837 24.1699C45.0145 23.8734 44.7698 23.6269 44.4745 23.4555C44.1792 23.284 43.8438 23.1937 43.5024 23.1937C43.161 23.1937 42.8256 23.284 42.5304 23.4555C42.2351 23.6269 41.9904 23.8734 41.8212 24.1699L38.9999 29.2705C38.8666 29.518 38.681 29.7335 38.4561 29.9022C38.2312 30.0708 37.9723 30.1885 37.6973 30.2472L32.0548 31.332C31.7163 31.4051 31.4027 31.5651 31.1448 31.7963C30.887 32.0274 30.6938 32.3218 30.5843 32.6503C30.4748 32.9789 30.4528 33.3302 30.5205 33.6699C30.5881 34.0095 30.743 34.3257 30.97 34.5872L34.8761 38.8191C35.0656 39.0222 35.2113 39.2619 35.3045 39.5236C35.3978 39.7852 35.4365 40.0632 35.4181 40.3403L34.768 46.0909C34.7249 46.4304 34.7741 46.7752 34.9106 47.089C35.0471 47.4029 35.2657 47.6741 35.5434 47.8741C35.8211 48.0741 36.1476 48.1955 36.4885 48.2254C36.8294 48.2554 37.172 48.1928 37.4804 48.0443L42.689 45.5489C42.9468 45.4413 43.2234 45.3859 43.5028 45.3859C43.7821 45.3859 44.0588 45.4413 44.3167 45.5489L49.5253 48.0443C49.8331 48.2004 50.1778 48.2688 50.5219 48.2421C50.866 48.2155 51.1961 48.0947 51.4761 47.8931C51.7562 47.6914 51.9755 47.4167 52.1099 47.0988C52.2443 46.781 52.2888 46.4323 52.2384 46.0909L51.5875 40.3403C51.5344 40.0614 51.5567 39.7735 51.6519 39.5061C51.7472 39.2387 51.9121 39.0015 52.1295 38.8191L56.0364 34.5872C56.2673 34.327 56.4256 34.0106 56.4954 33.6699C56.5651 33.3291 56.5438 32.976 56.4338 32.6461C56.3238 32.3161 56.1288 32.0209 55.8684 31.7903C55.6081 31.5596 55.2917 31.4016 54.9509 31.332Z" fill="#FF2E63"/>
<path d="M29.4497 73.0002C28.937 72.5502 28.2894 72.2832 27.6084 72.2412L23.0507 71.9154C20.8074 71.747 18.6244 71.1095 16.643 70.0442C14.6617 68.9788 12.9261 67.5093 11.5485 65.7308L0.697378 88.8439C0.473231 89.3435 0.388563 89.8945 0.452471 90.4384C0.51638 90.9822 0.726478 91.4986 1.06034 91.9326C1.3942 92.3667 1.83934 92.7021 2.3486 92.9034C2.85785 93.1047 3.41212 93.1643 3.95251 93.0758L13.7198 91.2344C14.3377 91.1247 14.9744 91.2127 15.5395 91.4858C16.1045 91.7589 16.569 92.2032 16.8669 92.7556L21.6416 101.436C21.8913 101.925 22.2759 102.332 22.7499 102.609C23.2238 102.885 23.7671 103.02 24.3155 102.997C24.8638 102.975 25.3941 102.795 25.8434 102.48C26.2926 102.165 26.6421 101.727 26.8502 101.219L37.3756 78.7572C35.7524 78.1053 34.2488 77.1885 32.9259 76.0441L29.4497 73.0002Z" fill="#FF2E63"/>
<path d="M86.2026 88.8439L75.3515 65.7308C73.9576 67.4919 72.2181 68.9491 70.24 70.0127C68.2619 71.0763 66.0871 71.7238 63.8493 71.9154L59.2916 72.2412C58.6177 72.3123 57.9785 72.5758 57.4503 73.0002L53.9773 75.9303C52.6439 77.0598 51.143 77.9752 49.5284 78.6436L60.0538 101.106C60.2807 101.594 60.6376 102.01 61.0852 102.309C61.5328 102.608 62.054 102.778 62.5918 102.8C63.1295 102.823 63.6632 102.697 64.1342 102.436C64.6053 102.176 64.9955 101.791 65.2624 101.323L70.0308 92.6411C70.3384 92.0976 70.8044 91.6607 71.3667 91.389C71.929 91.1172 72.5608 91.0233 73.1778 91.12L82.9451 92.9613C83.4788 93.0733 84.0331 93.0342 84.5458 92.8486C85.0586 92.663 85.5094 92.3381 85.8478 91.9105C86.1861 91.4828 86.3985 90.9693 86.4612 90.4277C86.5239 89.886 86.4344 89.3375 86.2026 88.8439Z" fill="#FF2E63"/>
<defs>
<linearGradient id="paint0_linear_42_1054" x1="43.4491" y1="0" x2="43.4491" y2="73.1937" gradientUnits="userSpaceOnUse">
<stop stop-color="#252A34"/>
<stop offset="1" stop-color="#FF2E63"/>
<stop offset="1" stop-color="#FF2E63"/>
</linearGradient>
</defs>
</svg>
