<svg xmlns="http://www.w3.org/2000/svg" width="76.839" height="70.854" viewBox="0 0 76.839 70.854"><defs><style>.a{fill:#A82047;}</style></defs><g transform="translate(-11.581 -14.573)"><path class="a" d="M79.339,48.34A13.836,13.836,0,0,0,67.692,34.671V32.73a26.57,26.57,0,0,0-53.14,0v1.86a13.892,13.892,0,0,0,1.86,27.662h3.559a5.161,5.161,0,0,0,5.177-5.177V39.686a5.241,5.241,0,0,0-4.61-5.177V32.73a20.544,20.544,0,1,1,41.089,0v1.7A5.127,5.127,0,0,0,56.611,39.6v17.39a5.162,5.162,0,0,0,3.4,4.853,15.288,15.288,0,0,1-12.052,7.441A3.305,3.305,0,0,0,44.721,66.7H37.441a3.331,3.331,0,0,0-3.316,3.316v3.721a3.331,3.331,0,0,0,3.316,3.316h7.279a3.229,3.229,0,0,0,3.235-2.75A20.313,20.313,0,0,0,65.427,62.171,13.894,13.894,0,0,0,79.339,48.34ZM19.162,56.186h-2.75a7.846,7.846,0,0,1,0-15.691h2.75Zm46.265,0h-2.75V40.494h2.75a7.846,7.846,0,0,1,0,15.691Z" transform="translate(9.081 8.373)"/></g></svg>